<svg xmlns="http://www.w3.org/2000/svg"  viewBox="0 0 50 50" width="50px" height="50px"><path d="M 11.59375 13.40625 C 5.234375 13.40625 0 18.636719 0 25 C 0 31.363281 5.234375 36.59375 11.59375 36.59375 C 16.261719 36.59375 20.007813 33.804688 22.59375 31.21875 C 23.570313 30.242188 24.347656 29.308594 25 28.46875 C 25.652344 29.308594 26.429688 30.242188 27.40625 31.21875 C 29.992188 33.804688 33.738281 36.59375 38.40625 36.59375 C 44.765625 36.59375 50 31.363281 50 25 C 50 18.636719 44.769531 13.40625 38.40625 13.40625 C 33.738281 13.40625 29.992188 16.195313 27.40625 18.78125 C 26.429688 19.757813 25.652344 20.691406 25 21.53125 C 24.363281 20.699219 23.613281 19.777344 22.65625 18.8125 C 20.089844 16.21875 16.335938 13.40625 11.59375 13.40625 Z M 11.59375 17.40625 C 14.710938 17.40625 17.636719 19.425781 19.8125 21.625 C 21.171875 22.996094 22.027344 24.132813 22.59375 24.96875 C 22.015625 25.800781 21.152344 26.972656 19.75 28.375 C 17.542969 30.582031 14.59375 32.59375 11.59375 32.59375 C 7.414063 32.59375 4 29.179688 4 25 C 4 20.820313 7.414063 17.40625 11.59375 17.40625 Z M 38.40625 17.40625 C 42.585938 17.40625 46 20.820313 46 25 C 46 29.179688 42.585938 32.59375 38.40625 32.59375 C 35.40625 32.59375 32.457031 30.582031 30.25 28.375 C 28.875 27 28.019531 25.839844 27.4375 25 C 28.019531 24.160156 28.875 23 30.25 21.625 C 32.457031 19.417969 35.40625 17.40625 38.40625 17.40625 Z M 36 20 L 36 23 L 33 23 L 33 27 L 36 27 L 36 30 L 40 30 L 40 27 L 43 27 L 43 23 L 40 23 L 40 20 Z M 7 23 L 7 27 L 17 27 L 17 23 Z"/></svg>