<?xml version="1.0" encoding="utf-8"?>
<!-- Generator: Adobe Illustrator 24.0.0, SVG Export Plug-In . SVG Version: 6.00 Build 0)  -->
<svg version="1.1" xmlns="http://www.w3.org/2000/svg" xmlns:xlink="http://www.w3.org/1999/xlink" x="0px" y="0px"
	 viewBox="0 0 256 256" enable-background="new 0 0 256 256" xml:space="preserve">
<g id="Layer_2">
</g>
<g id="Layer_1">
	<g>
	</g>
	<g>
		<path fill="#EFEFEF" d="M212.09,38.96v156.03l-10.05,10.05c-3.35,3.34-9.06,3.59-12.46,0.3c-3.52-3.4-3.55-9.01-0.11-12.46
			l11.05-11.05c3.07-3.07,3.25-8.07,0.24-11.2c-3.09-3.26-8.23-3.28-11.36-0.14l-23.35,23.33c-7.08,7.09-9.46,14.79-9.54,23.64
			H99.49c-0.08-8.85-2.46-16.55-9.54-23.64L66.6,170.49c-3.13-3.14-8.27-3.12-11.36,0.14c-3.01,3.13-2.83,8.13,0.24,11.2
			l11.05,11.05c3.44,3.45,3.41,9.06-0.11,12.46c-3.4,3.29-9.11,3.04-12.46-0.3l-9.05-9.05V7.62h135.84L212.09,38.96z"/>
		<path fill="#AFAFAF" d="M212.09,186.5v8.49l-10.05,10.05c-3.35,3.34-9.06,3.59-12.46,0.3c-3.52-3.4-3.55-9.01-0.11-12.46
			l11.05-11.05c3.07-3.07,3.25-8.07,0.24-11.2c-3.09-3.26-8.23-3.28-11.36-0.14l-23.35,23.33c-7.08,7.09-9.46,14.79-9.54,23.64h-6
			v-0.05c0.1-11.369,3.678-20.218,11.29-27.83l23.36-23.33c5.58-5.6,14.61-5.38,19.95,0.25c5.19,5.39,5.04,14.18-0.35,19.57
			l-11.05,11.05c-1.07,1.07-1.07,2.83,0.04,3.9c1.01,0.99,2.99,0.83,4.05-0.23L212.09,186.5z"/>
		<path fill="#AFAFAF" d="M105.49,217.41v0.05h-6c-0.08-8.85-2.46-16.55-9.54-23.64L66.6,170.49c-3.13-3.14-8.27-3.12-11.36,0.14
			c-3.01,3.13-2.83,8.13,0.24,11.2l11.05,11.05c3.44,3.45,3.41,9.06-0.11,12.46c-3.4,3.29-9.11,3.04-12.46-0.3l-9.05-9.05v-8.48
			L58.2,200.8c1.05,1.04,3.03,1.21,4.05,0.23c1.11-1.07,1.11-2.83,0.03-3.91l-11.04-11.05c-5.39-5.39-5.54-14.18-0.32-19.6
			c5.26-5.55,14.29-5.87,19.93-0.22l23.34,23.33C101.8,197.19,105.39,206.04,105.49,217.41z"/>
		<circle fill="#F0C020" cx="87.875" cy="55.04" r="31.75"/>
		<path fill="#FFB69F" d="M99.5,248.38H56.75v-11.49L9.91,190.04c-1.8-1.79-2.81-4.22-2.81-6.77l-0.32-39.08
			c0-4.82,3.91-8.72,8.73-8.73c4.81,0,8.72,3.91,8.72,8.73l0.32,28.33c0,2.028,0.824,3.924,2.19,5.29l18.17,18.18l9.05,9.05
			c3.35,3.34,9.06,3.59,12.46,0.3c3.52-3.4,3.55-9.01,0.11-12.46l-11.05-11.05c-3.07-3.07-3.25-8.07-0.24-11.2
			c3.09-3.26,8.23-3.28,11.36-0.14l23.35,23.33c7.08,7.09,9.46,14.79,9.54,23.64C99.51,217.75,99.5,248.08,99.5,248.38z"/>
		<path fill="#FFB69F" d="M249.22,144.19l-0.32,39.08c0,2.55-1.01,4.98-2.81,6.77l-46.84,46.85v11.49H156.5
			c0-0.3-0.01-30.63,0.01-30.92c0.08-8.85,2.46-16.55,9.54-23.64l23.35-23.33c3.13-3.14,8.27-3.12,11.36,0.14
			c3.01,3.13,2.83,8.13-0.24,11.2l-11.05,11.05c-3.44,3.45-3.41,9.06,0.11,12.46c3.4,3.29,9.11,3.04,12.46-0.3l10.05-10.05
			l17.17-17.18c1.363-1.363,2.19-3.257,2.19-5.29l0.32-28.33c0-4.82,3.91-8.73,8.72-8.73C245.31,135.47,249.22,139.37,249.22,144.19
			z"/>
		<path fill="#FFB69F" d="M86.329,75.202L86.329,75.202c-7.233,0-13.096-5.863-13.096-13.096V51.178h26.191v10.929
			C99.424,69.339,93.561,75.202,86.329,75.202z"/>
		<path fill="#7C7B7A" d="M101.73,34.878l-5.65,2.949c-1.452,0.758-3.065,1.153-4.702,1.153H79.276c-4.201,0-7.403,3.76-6.735,7.907
			l0.692,4.292h26.191l0,0c4.056-4.322,5.025-10.697,2.437-16.029L101.73,34.878z"/>
		<path fill="#FBE0E2" d="M92.346,243.724c-1.381,0-2.5-1.119-2.5-2.5v-4.388c0-1.381,1.119-2.5,2.5-2.5s2.5,1.119,2.5,2.5v4.388
			C94.846,242.604,93.727,243.724,92.346,243.724z M92.346,229.335c-1.381,0-2.5-1.119-2.5-2.5v-8.837
			c0-7.54-1.948-12.565-6.723-17.346l-23.358-23.34c-0.978-0.976-0.978-2.559-0.002-3.536c0.977-0.978,2.561-0.977,3.535-0.001
			l23.36,23.342c5.663,5.669,8.188,12.109,8.188,20.881v8.837C94.846,228.216,93.727,229.335,92.346,229.335z"/>
		<path fill="#FBE0E2" d="M192.095,243.724c-1.381,0-2.5-1.119-2.5-2.5v-7.301c0-0.663,0.264-1.299,0.732-1.768l48.953-48.953
			l0.185-27.034c0.011-1.374,1.128-2.48,2.5-2.48c0.007,0,0.013,0,0.021,0c1.38,0.011,2.49,1.139,2.479,2.52l-0.217,27.025
			c0,1.331-0.51,2.583-1.435,3.505l-48.219,48.219v6.266C194.595,242.604,193.476,243.724,192.095,243.724z M242.045,148.688
			c-0.006,0-0.013,0-0.02,0c-1.381-0.011-2.491-1.139-2.48-2.52l0.016-2c0.011-1.374,1.128-2.48,2.5-2.48c0.006,0,0.013,0,0.02,0
			c1.381,0.011,2.491,1.139,2.48,2.52l-0.016,2C244.534,147.582,243.417,148.688,242.045,148.688z"/>
		<path d="M60.62,71.53c-1.146,0.828-1.353,2.419-0.561,3.49c0.798,1.127,2.396,1.37,3.48,0.57c1.111-0.788,1.388-2.361,0.58-3.48
			c0,0,0,0,0-0.01C63.34,71.03,61.71,70.76,60.62,71.53z"/>
		<path d="M87.87,20.79c-23.258,0-39.638,22.653-32.641,44.64c0.41,1.28,1.84,2.03,3.141,1.62c1.278-0.405,2.06-1.799,1.62-3.14
			c-6.001-18.857,8.23-38.083,27.88-38.12c16.1,0.03,29.229,13.15,29.25,29.25c-0.021,16.1-13.15,29.22-29.25,29.25
			c-6.271,0-12.25-1.96-17.301-5.66c-1.069-0.8-2.71-0.54-3.489,0.53c-0.805,1.086-0.607,2.658,0.529,3.5
			c5.9,4.34,12.91,6.63,20.261,6.63c18.935,0,34.25-15.316,34.25-34.25C122.12,36.106,106.806,20.79,87.87,20.79z"/>
		<path d="M4.28,144.19l0.319,39.1c0,3.17,1.29,6.28,3.55,8.52l46.101,46.12v10.45c0,1.38,1.12,2.5,2.5,2.5s2.5-1.12,2.5-2.5
			c0-0.01,0-0.01,0-0.02v-11.47c0-0.67-0.26-1.29-0.73-1.77l-46.84-46.85c-1.34-1.33-2.08-3.11-2.08-5l-0.319-39.1
			c0-3.42,2.789-6.2,6.239-6.21c3.42,0.01,6.2,2.8,6.21,6.23l0.32,28.36c0.01,2.65,1.04,5.15,2.92,7.03l27.22,27.23
			c4.342,4.321,11.573,4.555,15.971,0.33c4.455-4.312,4.618-11.543,0.14-16.02l-11.05-11.06c-2.045-2.044-2.328-5.507-0.21-7.69
			l0.02-0.02c2.103-2.226,5.603-2.257,7.771-0.09l6.5,6.49c0.939,0.94,2.59,0.94,3.529,0c0.948-0.928,1.028-2.513,0-3.54
			l-6.489-6.49c-4.239-4.237-10.979-3.974-14.92,0.17c-0.011,0-0.011,0-0.011,0c-3.946,4.098-3.776,10.644,0.271,14.71l11.05,11.05
			c2.458,2.479,2.427,6.464-0.08,8.89c-2.39,2.325-6.552,2.128-8.95-0.27l-8.319-8.322V10.12h130.84v28.84
			c0,1.381,1.119,2.5,2.5,2.5h28.84V69.2c0,1.38,1.12,2.5,2.5,2.5s2.5-1.12,2.5-2.5v-0.01V38.96c0-0.685-0.324-1.356-0.73-1.77
			L182.52,5.85c-0.423-0.415-1.098-0.73-1.77-0.73H44.91c-1.371,0-2.5,1.114-2.5,2.5v182.326l-13.9-13.906
			c-0.93-0.93-1.46-2.21-1.46-3.52l-0.32-28.36c-0.02-6.17-5.05-11.2-11.22-11.2C9.319,132.97,4.28,138.01,4.28,144.19z
			 M183.25,13.656c14.669,14.669,9.719,9.718,22.801,22.804H183.25V13.656z"/>
		<path d="M78.399,182.28c-0.97,0.98-0.97,2.56,0,3.54c0.976,0.975,2.569,0.972,3.54,0c0.971-0.98,0.971-2.56,0-3.54
			C81,181.34,79.35,181.34,78.399,182.28z"/>
		<path d="M244.322,188.272l-46.84,46.85c-0.469,0.469-0.732,1.104-0.732,1.768v11.49c0,1.381,1.119,2.5,2.5,2.5s2.5-1.119,2.5-2.5
			v-10.455l46.103-46.113c2.288-2.275,3.548-5.309,3.548-8.522l0.319-39.101c0-6.179-5.035-11.217-11.229-11.23
			c-6.188,0-11.221,5.038-11.221,11.202l-0.319,28.358c0,1.312-0.531,2.596-1.459,3.523l-12.901,12.906V89.2
			c0-1.38-1.12-2.5-2.5-2.5s-2.5,1.12-2.5,2.5v104.75l-9.32,9.32c-0.004,0.004-0.007,0.009-0.01,0.013
			c-2.428,2.402-6.599,2.526-8.942,0.259c-2.519-2.433-2.531-6.434-0.08-8.895l11.05-11.05c4.051-4.051,4.174-10.646,0.287-14.688
			c-4.05-4.274-10.812-4.332-14.94-0.188l-23.353,23.332c-6.354,6.362-9.617,13.694-10.178,22.907h-52.197
			c-0.521-9.054-3.753-16.512-10.187-22.91l-2.71-2.7c-0.94-0.95-2.59-0.94-3.53,0c-0.979,0.98-0.979,2.56,0,3.54c0,0,0,0,0.011,0
			l2.689,2.7c6.05,6.1,8.68,12.65,8.811,21.89v0.04v0.01c0.014,0.984,0.01,21.407,0.01,30.85c0,1.38,1.12,2.5,2.5,2.5
			s2.5-1.12,2.5-2.5c0-28.6,0.002-27.42-0.004-28.42h52.008c-0.004,3.306-0.007,10.84-0.004,28.132v0.288c0,1.381,1.119,2.5,2.5,2.5
			s2.5-1.119,2.5-2.5v-0.289c-0.006-41.11,0.01-27.72,0.01-30.609c0.082-9.125,2.799-15.877,8.807-21.894l23.354-23.333
			c2.215-2.222,5.708-2.083,7.787,0.108c2.025,2.106,1.933,5.561-0.206,7.7l-11.053,11.052c-4.408,4.421-4.405,11.629,0.143,16.022
			c4.284,4.145,11.554,4.01,15.915-0.283c0.017-0.016,0.037-0.027,0.053-0.043c0-0.004,0-0.003,0-0.004
			c1.874-1.875,25.346-25.355,27.218-27.228c1.857-1.857,2.923-4.43,2.923-7.03l0.319-28.358c0-3.435,2.791-6.23,6.216-6.23
			c3.438,0.007,6.234,2.802,6.234,6.209L246.4,183.27C246.4,185.163,245.664,186.938,244.322,188.272z"/>
		<circle cx="212.09" cy="79.2" r="2.5"/>
		<path d="M86.329,77.702c8.6,0,15.596-6.996,15.596-15.595v-9.998c3.972-4.803,5.219-11.794,2.055-18.322
			c-0.611-1.261-2.149-1.781-3.407-1.126l-5.648,2.949c-1.091,0.569-2.316,0.87-3.546,0.87H79.276
			c-5.741,0-10.116,5.142-9.203,10.805l0.66,4.092v10.731C70.733,70.706,77.729,77.702,86.329,77.702z M96.925,62.107
			c0,5.842-4.753,10.595-10.596,10.595s-10.596-4.753-10.596-10.595v-8.429h21.191V62.107z M79.276,41.479h12.102
			c2.031,0,4.058-0.497,5.859-1.437l3.167-1.653c0.922,3.539,0.15,7.381-2.126,10.289H75.362l-0.354-2.189
			C74.586,43.856,76.622,41.479,79.276,41.479z"/>
		<path d="M86.329,68.218c4.166,0,7.556-3.39,7.556-7.556c0-1.381-1.119-2.5-2.5-2.5s-2.5,1.119-2.5,2.5
			c0,1.409-1.146,2.556-2.556,2.556s-2.556-1.146-2.556-2.556c0-1.381-1.119-2.5-2.5-2.5s-2.5,1.119-2.5,2.5
			C78.773,64.829,82.163,68.218,86.329,68.218z"/>
		<path d="M134.25,63.696h41c1.381,0,2.5-1.119,2.5-2.5s-1.119-2.5-2.5-2.5h-41c-1.381,0-2.5,1.119-2.5,2.5
			S132.869,63.696,134.25,63.696z"/>
		<path d="M134.25,75.21h63.25c1.381,0,2.5-1.119,2.5-2.5s-1.119-2.5-2.5-2.5h-63.25c-1.381,0-2.5,1.119-2.5,2.5
			S132.869,75.21,134.25,75.21z"/>
		<path d="M58.016,100.75c0,1.381,1.119,2.5,2.5,2.5h100c1.381,0,2.5-1.119,2.5-2.5s-1.119-2.5-2.5-2.5h-100
			C59.135,98.25,58.016,99.369,58.016,100.75z"/>
		<path d="M196.484,98.25h-25.969c-1.381,0-2.5,1.119-2.5,2.5s1.119,2.5,2.5,2.5h25.969c1.381,0,2.5-1.119,2.5-2.5
			S197.865,98.25,196.484,98.25z"/>
		<path d="M196.484,111.813h-95.969c-1.381,0-2.5,1.119-2.5,2.5s1.119,2.5,2.5,2.5h95.969c1.381,0,2.5-1.119,2.5-2.5
			S197.865,111.813,196.484,111.813z"/>
		<path d="M60.516,116.813h30c1.381,0,2.5-1.119,2.5-2.5s-1.119-2.5-2.5-2.5h-30c-1.381,0-2.5,1.119-2.5,2.5
			S59.135,116.813,60.516,116.813z"/>
		<path d="M143.016,127.875c0-1.381-1.119-2.5-2.5-2.5h-80c-1.381,0-2.5,1.119-2.5,2.5s1.119,2.5,2.5,2.5h80
			C141.896,130.375,143.016,129.256,143.016,127.875z"/>
		<path d="M196.484,125.375h-45.969c-1.381,0-2.5,1.119-2.5,2.5s1.119,2.5,2.5,2.5h45.969c1.381,0,2.5-1.119,2.5-2.5
			S197.865,125.375,196.484,125.375z"/>
		<path d="M60.516,138.938c-1.381,0-2.5,1.119-2.5,2.5s1.119,2.5,2.5,2.5h50c1.381,0,2.5-1.119,2.5-2.5s-1.119-2.5-2.5-2.5H60.516z"
			/>
		<path d="M196.484,138.938h-75.969c-1.381,0-2.5,1.119-2.5,2.5s1.119,2.5,2.5,2.5h75.969c1.381,0,2.5-1.119,2.5-2.5
			S197.865,138.938,196.484,138.938z"/>
		<path d="M196.484,152.5h-29.969c-1.381,0-2.5,1.119-2.5,2.5s1.119,2.5,2.5,2.5h29.969c1.381,0,2.5-1.119,2.5-2.5
			S197.865,152.5,196.484,152.5z"/>
		<path d="M159.016,155c0-1.381-1.119-2.5-2.5-2.5h-96c-1.381,0-2.5,1.119-2.5,2.5s1.119,2.5,2.5,2.5h96
			C157.896,157.5,159.016,156.381,159.016,155z"/>
	</g>
</g>
</svg>
